<svg xmlns="http://www.w3.org/2000/svg" xmlns:xlink="http://www.w3.org/1999/xlink" viewBox="0,0,256,256" width="100px" height="100px"><g fill="none" fill-rule="nonzero" stroke="none" stroke-width="none" stroke-linecap="none" stroke-linejoin="none" stroke-miterlimit="10" stroke-dasharray="" stroke-dashoffset="0" font-family="none" font-weight="none" font-size="none" text-anchor="none" style="mix-blend-mode: normal"><g transform="scale(2.56,2.56)"><path d="M93,52c0,-4.91748 -2.97546,-9.14844 -7.21826,-11c4.2428,-1.85156 7.21826,-6.08252 7.21826,-11c0,-6.61719 -5.38281,-12 -12,-12h-58c-6.61719,0 -12,5.38281 -12,12c0,4.91748 6.05507,9.14844 10.29787,11c-4.2428,1.85156 -10.29787,6.08252 -10.29787,11c0,4.91748 6.05507,9.14844 10.29787,11c-4.2428,1.85156 -10.29787,6.08252 -10.29787,11c0,6.61719 5.38281,12 12,12h58c6.61719,0 12,-5.38281 12,-12c0,-4.91748 -2.97546,-9.14844 -7.21826,-11c4.2428,-1.85156 7.21826,-6.08252 7.21826,-11z" fill="#2b2b2b" stroke="none" stroke-width="1" stroke-linecap="butt" stroke-linejoin="miter" opacity="0.35"></path><path d="M91,50c0,-4.91748 -2.97546,-9.14844 -7.21826,-11c4.2428,-1.85156 7.21826,-6.08252 7.21826,-11c0,-6.61719 -5.38281,-12 -12,-12h-58c-6.61719,0 -12,5.38281 -12,12c0,4.91748 2.97546,9.14844 7.21826,11c-4.2428,1.85156 -7.21826,6.08252 -7.21826,11c0,4.91748 2.97546,9.14844 7.21826,11c-4.2428,1.85156 -7.21826,6.08252 -7.21826,11c0,6.61719 5.38281,12 12,12h58c6.61719,0 12,-5.38281 12,-12c0,-4.91748 -2.97546,-9.14844 -7.21826,-11c4.2428,-1.85156 7.21826,-6.08252 7.21826,-11z" fill="#62929e" stroke="none" stroke-width="1" stroke-linecap="butt" stroke-linejoin="miter"></path><path d="M20.99999,22.5h58.00002c3.03756,0 5.49999,2.46243 5.49999,5.49999v0.00001c0,3.03756 -2.46243,5.49999 -5.49999,5.49999h-58.00001c-3.03756,0 -5.49999,-2.46243 -5.49999,-5.49999v-0.00001c0,-3.03756 2.46243,-5.49999 5.49999,-5.49999z" fill="#70bfff" stroke="#393d3f" stroke-width="3" stroke-linecap="round" stroke-linejoin="round"></path><path d="M20.99999,44.5h58.00002c3.03756,0 5.49999,2.46243 5.49999,5.5v0.00001c0,3.03756 -2.46243,5.5 -5.49999,5.5h-58.00001c-3.03756,0 -5.49999,-2.46243 -5.49999,-5.5v-0.00001c0,-3.03756 2.46243,-5.5 5.49999,-5.5z" fill="#70bfff" stroke="#393d3f" stroke-width="3" stroke-linecap="round" stroke-linejoin="round"></path><path d="M20.99999,66.5h58.00002c3.03756,0 5.49999,2.46243 5.49999,5.49999v0.00002c0,3.03756 -2.46243,5.49999 -5.49999,5.49999h-58.00001c-3.03756,0 -5.49999,-2.46243 -5.49999,-5.49999v-0.00002c0,-3.03756 2.46243,-5.49999 5.49999,-5.49999z" fill="#70bfff" stroke="#393d3f" stroke-width="3" stroke-linecap="round" stroke-linejoin="round"></path></g></g></svg>