<!DOCTYPE svg PUBLIC "-//W3C//DTD SVG 1.1//EN" "http://www.w3.org/Graphics/SVG/1.1/DTD/svg11.dtd">
<!-- Uploaded to: SVG Repo, www.svgrepo.com, Transformed by: SVG Repo Mixer Tools -->
<svg version="1.1" id="Layer_1" xmlns="http://www.w3.org/2000/svg" xmlns:xlink="http://www.w3.org/1999/xlink" viewBox="0 0 512 512" xml:space="preserve" width="800px" height="800px" fill="#000000">
<g id="SVGRepo_bgCarrier" stroke-width="0"/>
<g id="SVGRepo_tracerCarrier" stroke-linecap="round" stroke-linejoin="round"/>
<g id="SVGRepo_iconCarrier"> <path style="fill:#62929eff;" d="M493.2,128c8.8,0,14.8,7.6,14.8,16.4V192c0,8.8-6,16-14.8,16H484c0-6.4,0-14.4,0-22.8v-28V140v-12 H493.2z"/> <path style="fill:#546a7bff;" d="M348.8,256c0,26.4,21.6,48,48,48s48-21.6,48-48s-21.6-48-48-48C370.4,208,348.8,229.6,348.8,256z M20,140v-19.6c0-20,17.6-36.4,38-36.4h18h336h16h20.4c20,0,35.6,16.4,35.6,36.4v7.6v12v17.2v28c0,8.8,0,16.8,0,22.8 c0,8.4,0,13.6,0,13.6V380H308V208H132v19.6c0,20-15.6,36.4-35.6,36.4H58c-20.4,0-38-16-38-36.4v-6c0,0,0-3.6,0-10 c0-6.8,0-16.4,0-26.8V140z M360,340c0,4.4,3.6,8,8,8h28h28c4.4,0,8-3.6,8-8v-8c0-4.4-3.6-8-8-8h-28h-28c-4.4,0-8,3.6-8,8V340z"/> <rect x="412" y="60" style="fill:#393d3fff;" width="16" height="24"/> <path style="fill:#62929eff;" d="M368.8,256c0,15.6,12.8,28,28.4,28c15.6,0,28-12.4,28-28c0-4-0.8-7.6-2.4-10.8l-13.6-14.4 c-3.6-2-8-2.8-12.4-2.8C381.6,228,368.8,240.4,368.8,256z M397.2,304c-26.4,0-48-21.6-48-48s21.6-48,48-48s48,21.6,48,48 S423.6,304,397.2,304z"/> <path style="fill:#546a7bff;" d="M484,380h5.2c8.8,0,14.8,7.2,14.8,16v56H4v-56c0-8.8,8.4-16,17.2-16H308H484z"/> <g> <path style="fill:#393d3fff;" d="M396,324v24h-28c-4.4,0-8-3.6-8-8v-8c0-4.4,3.6-8,8-8H396z"/> <path style="fill:#393d3fff;" d="M422.8,245.2c1.6,3.2,2.4,7.2,2.4,10.8c0,15.6-12.8,28-28,28c-15.6,0-28.4-12.4-28.4-28 s12.8-28,28.4-28c4.4,0,8.8,1.2,12.4,2.8L422.8,245.2z"/> <path style="fill:#393d3fff;" d="M424,324c4.4,0,8,3.6,8,8v8c0,4.4-3.6,8-8,8h-28v-24H424z"/> <rect x="68" y="268" style="fill:#393d3fff;" width="16" height="36"/> </g> <path d="M308,384c-2.4,0-4-1.6-4-4V212H136v15.6c0,22.8-17.2,40.4-39.6,40.4H58c-22.8,0-42-18.4-42-40.4V120.4 C16,98.4,35.2,80,58,80h354c2.4,0,4,1.6,4,4s-1.6,4-4,4H58c-18.4,0-34,14.8-34,32.4v107.2c0,17.6,15.6,32.4,34,32.4h38.4 c17.6,0,31.6-14.4,31.6-32.4V208c0-2.4,1.6-4,4-4h176c2.4,0,4,1.6,4,4v172C312,382.4,310.4,384,308,384z"/> <path d="M484,132c-2.4,0-4-1.6-4-4v-7.6C480,102,466,88,448.4,88H428c-2.4,0-4-1.6-4-4s1.6-4,4-4h20.4c22.4,0,39.6,18,39.6,40.4v7.6 C488,130.4,486.4,132,484,132z"/> <path d="M484,384c-2.4,0-4-1.6-4-4V208c0-2.4,1.6-4,4-4s4,1.6,4,4v172C488,382.4,486.4,384,484,384z"/> <path d="M76,360c-2.4,0-4-1.6-4-4v-48c0-2.4,1.6-4,4-4s4,1.6,4,4v48C80,358.4,78.4,360,76,360z"/> <path d="M76,88c-2.4,0-4-1.6-4-4V72c0-2.4,1.6-4,4-4s4,1.6,4,4v12C80,86.4,78.4,88,76,88z"/> <path d="M504,456H4c-2.4,0-4-1.6-4-4v-56c0-10.8,10-20,21.2-20h468c10.8,0,18.8,8.8,18.8,20v56C508,454.4,506.4,456,504,456z M8,448 h492v-52c0-6.8-4.8-12-10.8-12h-468C14.4,384,8,389.6,8,396V448z"/> <path d="M84,308H68c-2.4,0-4-1.6-4-4v-36c0-2.4,1.6-4,4-4s4,1.6,4,4v32h8v-32c0-2.4,1.6-4,4-4s4,1.6,4,4v36 C88,306.4,86.4,308,84,308z"/> <path d="M493.2,212H484c-2.4,0-4-1.6-4-4s1.6-4,4-4h9.2c6.4,0,10.8-5.2,10.8-12v-47.6c0-7.2-4.8-12.4-10.8-12.4H484 c-2.4,0-4-1.6-4-4s1.6-4,4-4h9.2c10.4,0,18.8,8.8,18.8,20.4V192C512,203.2,503.6,212,493.2,212z"/> <path d="M397.2,308c-28.8,0-52-23.2-52-52s23.2-52,52-52s52,23.2,52,52S425.6,308,397.2,308z M397.2,212c-24.4,0-44,19.6-44,44 s19.6,44,44,44s44-19.6,44-44S421.2,212,397.2,212z"/> <path d="M397.2,288.4c-17.6,0-32-14.4-32-32s14.4-32,32-32c4.8,0,10,1.2,14.4,3.2c2,0.8,2.8,3.2,1.6,5.2s-3.2,2.8-5.2,1.6 c-3.2-1.6-6.8-2.4-10.8-2.4c-13.2,0-24,10.8-24,24s10.8,24,24,24s24-10.8,24-24c0-3.2-0.8-6.4-2-9.2c-0.8-2,0-4.4,2-5.2 c2-0.8,4.4,0,5.2,2c1.6,4,2.4,8,2.4,12.4C429.2,274,414.8,288.4,397.2,288.4z"/> <path d="M424,352h-56c-6.8,0-12-5.2-12-12v-8c0-6.8,5.2-12,12-12h56c6.8,0,12,5.2,12,12v8C436,346.8,430.8,352,424,352z M368,328 c-2.4,0-4,1.6-4,4v8c0,2.4,1.6,4,4,4h56c2.4,0,4-1.6,4-4v-8c0-2.4-1.6-4-4-4H368z"/> <path d="M396,352c-2.4,0-4-1.6-4-4v-24c0-2.4,1.6-4,4-4s4,1.6,4,4v24C400,350.4,398.4,352,396,352z"/> <path d="M408,144H20c-2.4,0-4-1.6-4-4s1.6-4,4-4h388c2.4,0,4,1.6,4,4S410.4,144,408,144z"/> <path d="M484,144h-40c-2.4,0-4-1.6-4-4s1.6-4,4-4h40c2.4,0,4,1.6,4,4S486.4,144,484,144z"/> <path d="M428,88c-2.4,0-4-1.6-4-4V64h-8v20c0,2.4-1.6,4-4,4s-4-1.6-4-4V60c0-2.4,1.6-4,4-4h16c2.4,0,4,1.6,4,4v24 C432,86.4,430.4,88,428,88z"/> <path d="M484,212c-2.4,0-4-1.6-4-4v-80c0-2.4,1.6-4,4-4s4,1.6,4,4v80C488,210.4,486.4,212,484,212z"/> <path d="M428,88h-16c-2.4,0-4-1.6-4-4s1.6-4,4-4h16c2.4,0,4,1.6,4,4S430.4,88,428,88z"/> </g>
</svg>